PathFileType	4	(X/Y/Z)	/tmp/tmp8ooq684z//results/MarkerData/rotated_Sprint_07200001.trc
DataRate	CameraRate	NumFrames	NumMarkers	Units	OrigDataRate	OrigDataStartFrame	OrigNumFrames
200	200	9	46	m	200	318	636
Frame#	Time	C7			L.ASIS			L.PSIS			L_5meta			L_Shoulder			L_ankle			L_calc			L_elbow_lat			L_elbow_med			L_forearm			L_humerus			L_knee			L_sh2			L_sh3			L_shank_antsup			L_thigh1			L_thigh2			L_thigh3			L_thigh4			L_toe			L_wrist_radius			L_wrist_ulna			R_Shoulder			R_elbow_lat			R_elbow_med			R_forearm			R_humerus			R_wrist_radius			R_wrist_ulna			Sternum			r.ASIS			r.PSIS			r_5meta			r_ankle			r_calc			r_knee			r_sh2			r_sh3			r_sh4			r_shank_antsup			r_thigh1			r_thigh2			r_thigh3			r_thigh4			r_thigh5			r_toe		
		X1	Y1	Z1	X2	Y2	Z2	X3	Y3	Z3	X4	Y4	Z4	X5	Y5	Z5	X6	Y6	Z6	X7	Y7	Z7	X8	Y8	Z8	X9	Y9	Z9	X10	Y10	Z10	X11	Y11	Z11	X12	Y12	Z12	X13	Y13	Z13	X14	Y14	Z14	X15	Y15	Z15	X16	Y16	Z16	X17	Y17	Z17	X18	Y18	Z18	X19	Y19	Z19	X20	Y20	Z20	X21	Y21	Z21	X22	Y22	Z22	X23	Y23	Z23	X24	Y24	Z24	X25	Y25	Z25	X26	Y26	Z26	X27	Y27	Z27	X28	Y28	Z28	X29	Y29	Z29	X30	Y30	Z30	X31	Y31	Z31	X32	Y32	Z32	X33	Y33	Z33	X34	Y34	Z34	X35	Y35	Z35	X36	Y36	Z36	X37	Y37	Z37	X38	Y38	Z38	X39	Y39	Z39	X40	Y40	Z40	X41	Y41	Z41	X42	Y42	Z42	X43	Y43	Z43	X44	Y44	Z44	X45	Y45	Z45	X46	Y46	Z46

319	1.59	0.811041	1.56633	-0.288955	0.927012	1.02753	-0.4202	0.731287	1.08959	-0.340352	1.40337	0.174937	-0.451273	0.823097	1.54843	-0.482074	1.23843	0.207193	-0.436501	1.19032	0.172983	-0.380933	0.536679	1.4285	-0.592051	0.503211	1.3884	-0.510951	0.630301	1.2942	-0.598752	0.647024	1.42642	-0.577042	1.13158	0.634201	-0.458502	1.10264	0.507656	-0.480891	1.13963	0.39263	-0.46389	1.1905	0.525592	-0.466778	1.07632	0.866017	-0.470186	1.15444	0.752753	-0.444398	0.981304	0.79926	-0.492066	1.06259	0.690388	-0.461314	1.43073	0.21219	-0.388167	0.7289	1.22585	-0.551259	0.669509	1.19022	-0.580122	0.919913	1.53857	-0.118192	0.852094	1.23492	0.066273	0.8172	1.19357	-0.0103018	0.987604	1.28157	-0.036882	0.933531	1.3252	-0.011105	1.0668	1.30473	-0.111555	1.08377	1.26123	-0.0933789	0.958769	1.46818	-0.33867	0.933918	1.01549	-0.158557	0.730283	1.09392	-0.231492	0.106405	0.356093	-0.167235	0.205505	0.460124	-0.196287	0.192326	0.523828	-0.273619	0.630169	0.584712	-0.150485	0.408561	0.484538	-0.16192	0.501651	0.584099	-0.130401	0.393212	0.565783	-0.165399	0.523464	0.514464	-0.145454	0.82084	0.733253	-0.121655	0.759228	0.637537	-0.139926	0.706193	0.631663	-0.129859	0.721515	0.784788	-0.101212	0.666108	0.685067	-0.131116	0.136064	0.300351	-0.213366
320	1.595	0.813112	1.56818	-0.290279	0.925432	1.02817	-0.420305	0.730278	1.09002	-0.33988	1.41676	0.176422	-0.450452	0.82461	1.54851	-0.483098	1.25027	0.205056	-0.435424	1.20443	0.170428	-0.378277	0.539236	1.42514	-0.592652	0.506216	1.38412	-0.51179	0.633697	1.29084	-0.599557	0.649234	1.42536	-0.577527	1.12332	0.62391	-0.458579	1.10018	0.500532	-0.47941	1.14033	0.385671	-0.464399	1.18769	0.520474	-0.466191	1.07327	0.857036	-0.468288	1.14659	0.740891	-0.442704	0.976479	0.794776	-0.493108	1.05251	0.682064	-0.462598	1.4435	0.215947	-0.388459	0.732588	1.22259	-0.552211	0.673175	1.18715	-0.581395	0.920149	1.54001	-0.119057	0.84621	1.23982	0.0669817	0.810605	1.19884	-0.00947765	0.98475	1.27948	-0.0359651	0.93017	1.32834	-0.0100767	1.06625	1.29781	-0.110024	1.08083	1.25398	-0.0908146	0.959473	1.46906	-0.338782	0.934247	1.01725	-0.158207	0.730269	1.09491	-0.231554	0.102384	0.386137	-0.166041	0.207551	0.483474	-0.195328	0.198576	0.548082	-0.272718	0.636754	0.583012	-0.149938	0.411004	0.49559	-0.161546	0.508893	0.590561	-0.130787	0.399872	0.5775	-0.166454	0.526987	0.51965	-0.143542	0.825814	0.732864	-0.12116	0.765678	0.63615	-0.139162	0.712549	0.629585	-0.128973	0.725852	0.782832	-0.100258	0.671904	0.682288	-0.130319	0.127811	0.32871	-0.212743
321	1.6	0.815188	1.5698	-0.291718	0.923726	1.02884	-0.420659	0.729111	1.09025	-0.339071	1.42549	0.177505	-0.449837	0.82644	1.54809	-0.484016	1.25813	0.203656	-0.43335	1.21418	0.168989	-0.375075	0.542116	1.42053	-0.59387	0.509555	1.37903	-0.513054	0.637523	1.28652	-0.600631	0.651862	1.42345	-0.578321	1.11504	0.614612	-0.458944	1.09557	0.493557	-0.477217	1.13923	0.379199	-0.462918	1.18213	0.516625	-0.465743	1.06866	0.847598	-0.466878	1.13758	0.728998	-0.441459	0.97047	0.789351	-0.49454	1.0416	0.673394	-0.463752	1.45193	0.219343	-0.389316	0.736797	1.21847	-0.553295	0.677391	1.18323	-0.58272	0.920394	1.54103	-0.120034	0.839834	1.24452	0.0675418	0.803374	1.20389	-0.0089213	0.981459	1.27632	-0.0349344	0.926456	1.33116	-0.00909507	1.06539	1.2893	-0.108111	1.07717	1.24524	-0.0878202	0.960109	1.46949	-0.338828	0.934862	1.01864	-0.158132	0.730353	1.09567	-0.231218	0.100853	0.415817	-0.165279	0.212093	0.506098	-0.194039	0.20732	0.571669	-0.271343	0.644314	0.580581	-0.149454	0.415822	0.50606	-0.160915	0.518624	0.596045	-0.13135	0.40883	0.588314	-0.166318	0.532811	0.524215	-0.142457	0.83111	0.732037	-0.120388	0.77231	0.634289	-0.138185	0.719153	0.627092	-0.127779	0.730392	0.780485	-0.0991594	0.677868	0.679226	-0.129426	0.122026	0.356964	-0.213553
322	1.605	0.817324	1.57119	-0.293092	0.921786	1.02953	-0.421163	0.727943	1.09016	-0.337997	1.42962	0.178086	-0.449343	0.828498	1.54716	-0.484914	1.26178	0.202243	-0.430539	1.21978	0.167846	-0.371024	0.545229	1.41496	-0.595579	0.513206	1.37311	-0.514646	0.64175	1.28129	-0.601939	0.654854	1.42064	-0.579471	1.10697	0.606354	-0.459652	1.08921	0.486483	-0.475225	1.13658	0.373031	-0.459624	1.17506	0.512897	-0.465574	1.06297	0.837974	-0.465934	1.12747	0.717117	-0.441006	0.963541	0.783487	-0.496396	1.03048	0.664825	-0.464265	1.45613	0.222221	-0.390701	0.741458	1.21353	-0.554361	0.682024	1.17847	-0.584108	0.920836	1.54165	-0.121156	0.832994	1.24902	0.0678323	0.795711	1.20876	-0.00859552	0.977716	1.27209	-0.0336549	0.922332	1.33364	-0.00836325	1.06383	1.27924	-0.105708	1.07273	1.23505	-0.0843785	0.960702	1.4694	-0.338857	0.935598	1.01959	-0.158327	0.730182	1.0963	-0.230453	0.102011	0.444607	-0.165056	0.219089	0.527823	-0.192748	0.218291	0.594468	-0.269636	0.652777	0.577349	-0.148857	0.422421	0.515788	-0.160223	0.530498	0.600063	-0.13193	0.419709	0.598067	-0.165129	0.540469	0.527242	-0.142815	0.836547	0.73078	-0.119828	0.779218	0.632075	-0.137633	0.726121	0.624222	-0.126646	0.734971	0.777702	-0.0980962	0.684118	0.675679	-0.128597	0.119232	0.384769	-0.214496
323	1.61	0.81945	1.57232	-0.294538	0.919691	1.03026	-0.42172	0.726574	1.08972	-0.336599	1.42948	0.17736	-0.448688	0.830663	1.54573	-0.48592	1.2616	0.200152	-0.427005	1.22175	0.166468	-0.3658	0.54885	1.40843	-0.597642	0.517237	1.36638	-0.516486	0.646408	1.2752	-0.603445	0.658137	1.41685	-0.580954	1.09949	0.59924	-0.460374	1.08178	0.479541	-0.472573	1.13245	0.367272	-0.455083	1.1674	0.508479	-0.465877	1.05659	0.828326	-0.465274	1.117	0.705498	-0.441664	0.955789	0.777728	-0.498458	1.01996	0.657452	-0.463385	1.45665	0.223703	-0.392026	0.746674	1.208	-0.555417	0.68726	1.17293	-0.58556	0.921486	1.54187	-0.122323	0.825773	1.25324	0.0678557	0.787794	1.2134	-0.0084891	0.97347	1.26682	-0.0320549	0.91775	1.33567	-0.0078706	1.06143	1.26783	-0.10267	1.06733	1.22354	-0.0805786	0.961339	1.46882	-0.338863	0.936342	1.02019	-0.15894	0.729889	1.09674	-0.229536	0.105965	0.471981	-0.16512	0.227425	0.54856	-0.191817	0.231172	0.616341	-0.267634	0.662085	0.5733	-0.148081	0.43035	0.524654	-0.159511	0.543492	0.602248	-0.132458	0.43215	0.606784	-0.163405	0.549121	0.528954	-0.143317	0.842063	0.72962	-0.120035	0.786464	0.6295	-0.137929	0.733626	0.620866	-0.125721	0.739745	0.774511	-0.0971899	0.690746	0.671604	-0.127851	0.119951	0.411764	-0.215555
324	1.615	0.821469	1.57306	-0.296119	0.917573	1.03103	-0.422314	0.724914	1.08907	-0.334904	1.4259	0.174002	-0.447417	0.833025	1.54381	-0.487067	1.25838	0.196944	-0.422841	1.22055	0.164801	-0.3599	0.553056	1.40097	-0.600018	0.521579	1.35894	-0.518758	0.65151	1.26826	-0.605085	0.661742	1.41197	-0.582728	1.09255	0.593705	-0.460573	1.07367	0.473304	-0.468828	1.1269	0.361983	-0.449784	1.15924	0.5033	-0.466333	1.0496	0.819145	-0.464834	1.10763	0.695165	-0.443363	0.947604	0.772376	-0.501222	1.01038	0.652226	-0.461565	1.45402	0.222735	-0.393142	0.752236	1.20173	-0.55639	0.693157	1.16659	-0.586973	0.922222	1.54173	-0.12342	0.818228	1.25713	0.0676381	0.779735	1.21768	-0.00857705	0.968623	1.26064	-0.030092	0.912854	1.3372	-0.00729624	1.05814	1.25518	-0.0989909	1.06076	1.21105	-0.0764799	0.962072	1.4678	-0.338856	0.936941	1.02045	-0.160019	0.72952	1.09677	-0.228118	0.112715	0.497611	-0.165349	0.237771	0.568043	-0.191678	0.24556	0.637004	-0.265292	0.672006	0.568297	-0.147503	0.439367	0.532647	-0.15895	0.556894	0.602984	-0.132128	0.445733	0.614482	-0.1613	0.558187	0.529679	-0.143577	0.848016	0.728258	-0.12064	0.794421	0.626441	-0.13928	0.741897	0.617025	-0.124987	0.744996	0.770897	-0.0966326	0.697955	0.667052	-0.127157	0.123909	0.437614	-0.216984
325	1.62	0.823333	1.57339	-0.297779	0.915375	1.03169	-0.42284	0.723016	1.08804	-0.332963	1.41966	0.167589	-0.445741	0.836116	1.54137	-0.487846	1.25268	0.192725	-0.418373	1.2161	0.162984	-0.354668	0.55776	1.39255	-0.602711	0.526155	1.35071	-0.521595	0.657034	1.26055	-0.6069	0.665722	1.406	-0.584757	1.08568	0.590232	-0.459988	1.06476	0.467478	-0.464375	1.12007	0.357194	-0.444151	1.1504	0.497687	-0.466372	1.04196	0.811577	-0.464739	1.10001	0.687543	-0.44527	0.939495	0.767516	-0.504978	1.00176	0.649089	-0.459664	1.44885	0.218671	-0.394188	0.758114	1.19485	-0.557271	0.699511	1.15949	-0.58831	0.922907	1.54127	-0.124384	0.81039	1.26068	0.067132	0.771471	1.22172	-0.00894205	0.963079	1.25363	-0.0277199	0.907561	1.33819	-0.0067932	1.05384	1.24137	-0.0947032	1.05322	1.19782	-0.0715264	0.962867	1.4664	-0.33882	0.937421	1.02035	-0.161162	0.729261	1.09608	-0.22631	0.122023	0.521466	-0.165711	0.250024	0.586398	-0.191288	0.260977	0.656217	-0.26293	0.682482	0.56301	-0.146788	0.449357	0.539693	-0.158786	0.57043	0.602672	-0.130953	0.460105	0.621064	-0.158784	0.567565	0.529673	-0.143625	0.85463	0.726536	-0.12155	0.803196	0.62344	-0.140381	0.751013	0.613028	-0.124441	0.750878	0.766889	-0.0965486	0.705902	0.662026	-0.126566	0.130596	0.46207	-0.218608
326	1.625	0.825007	1.57336	-0.29958	0.912342	1.03195	-0.423037	0.720869	1.08669	-0.330968	1.41104	0.158801	-0.443572	0.839276	1.53852	-0.488826	1.24456	0.187995	-0.414779	1.20853	0.160916	-0.350397	0.562626	1.3835	-0.60585	0.530963	1.34187	-0.524831	0.663035	1.25215	-0.608841	0.670028	1.39896	-0.587023	1.07859	0.587791	-0.458918	1.05537	0.461596	-0.459635	1.11212	0.352963	-0.438618	1.14074	0.491853	-0.465855	1.03358	0.807132	-0.465095	1.09286	0.683746	-0.446246	0.931706	0.763253	-0.507755	0.994298	0.64709	-0.457991	1.44148	0.211672	-0.394592	0.764334	1.18739	-0.55806	0.706226	1.15173	-0.589599	0.923536	1.54047	-0.125269	0.802271	1.26392	0.0663503	0.762913	1.22561	-0.00978608	0.956835	1.24588	-0.0249197	0.902031	1.33891	-0.0068682	1.04845	1.22655	-0.0897208	1.04454	1.18376	-0.0655913	0.963692	1.46467	-0.33874	0.937844	1.02005	-0.162355	0.729208	1.0946	-0.224601	0.133527	0.543573	-0.166136	0.26395	0.603609	-0.190446	0.277429	0.674125	-0.261158	0.693355	0.557715	-0.146349	0.460253	0.545522	-0.159174	0.584082	0.601591	-0.12928	0.475003	0.626393	-0.156293	0.577484	0.52911	-0.143662	0.861698	0.724701	-0.122814	0.812816	0.620694	-0.141262	0.760898	0.60904	-0.123916	0.757295	0.762649	-0.0966681	0.714531	0.656621	-0.126069	0.139553	0.484773	-0.220268
327	1.63	0.826539	1.57289	-0.30141	0.909394	1.03209	-0.423218	0.718347	1.08504	-0.328891	1.40001	0.14869	-0.440802	0.841965	1.53536	-0.490453	1.23402	0.182891	-0.411929	1.19798	0.158013	-0.346947	0.567798	1.37382	-0.6094	0.536079	1.33248	-0.528404	0.66956	1.24306	-0.610823	0.674591	1.39091	-0.589469	1.07106	0.585217	-0.457683	1.04582	0.456113	-0.454946	1.10313	0.349275	-0.433609	1.13069	0.486023	-0.464866	1.02457	0.806062	-0.465638	1.08547	0.683376	-0.446176	0.92429	0.760082	-0.508613	0.987568	0.64583	-0.457026	1.43169	0.202378	-0.393501	0.770831	1.17941	-0.558534	0.713549	1.14343	-0.59078	0.923971	1.53936	-0.126083	0.793983	1.26679	0.065223	0.754373	1.22927	-0.0110869	0.949826	1.23747	-0.0217523	0.89613	1.33902	-0.00700855	1.04166	1.21077	-0.0839643	1.03447	1.16884	-0.0587741	0.964605	1.46267	-0.338622	0.938208	1.01963	-0.163618	0.729192	1.09258	-0.222969	0.146749	0.563895	-0.166396	0.279329	0.619569	-0.189599	0.295329	0.690746	-0.259339	0.704744	0.552427	-0.14587	0.471995	0.550319	-0.159497	0.597973	0.599807	-0.127793	0.490452	0.630493	-0.154128	0.588231	0.528162	-0.143813	0.869028	0.72305	-0.124274	0.82284	0.617876	-0.142296	0.771428	0.604976	-0.123701	0.764018	0.75824	-0.0967511	0.723716	0.650983	-0.125631	0.150638	0.505393	-0.221979
